<svg width="393" height="282" viewBox="0 0 393 282" fill="none" xmlns="http://www.w3.org/2000/svg">
<path d="M16.8157 255.055H77.6452V280.989H52.5023C43.1751 281.26 22.9797 276.451 16.8157 255.055Z" fill="#19BF72"/>
<path d="M7.48848 234.388H77.6452V211.29H7.48848V234.388Z" fill="#19BF72"/>
<path fill-rule="evenodd" clip-rule="evenodd" d="M13.5714 186.572H99.9493L119.009 167.121C119.82 173.604 124.768 186.572 138.069 186.572H177V148.885C174.026 142.402 165.402 129.597 154.696 130.245C143.99 130.893 155.912 127.814 163.212 126.193H177V117.683H149.829C144.017 120.79 131.5 129.191 127.931 137.944H116.982V27.3173C109.412 14.6202 88.1889 -4.69564 61.8295 2.59843C56.7563 4.00226 40.7419 6.48861 29.3871 22.0493C26.1429 41.095 23.3041 43.5264 29.3871 69.8661V78.3759C22.8986 77.5654 8.13733 80.402 1 98.232V121.735C3.83871 127.138 12.4359 137.944 24.1152 137.944H59.3963C63.1813 144.023 67.9935 157.557 56.9631 163.068V167.121H29.3871C24.1152 170.362 13.5714 178.791 13.5714 186.572ZM133.608 151.317C129.959 161.447 130.283 180.817 160.779 177.251C162.942 161.583 160.535 134.459 133.608 151.317ZM94.6774 133.082H29.3871C19.0055 133.082 9.65131 123.626 8.70507 118.493V98.232C13.5714 85.5889 32.9017 83.1035 39.5253 84.4543C54.4488 85.4268 82.5115 117.278 94.6774 133.082ZM110.088 36.2323V121.735H99.9493C74.9687 105.202 35.0645 64.5982 34.2535 52.8466L33.4424 41.9055L34.2535 30.9643C43.5806 10.703 54.53 13.1344 61.8295 10.703C84.8121 3.04777 104.14 22.1844 110.088 36.2323Z" fill="#19BF72"/>
<path d="M138.069 186.572C124.768 186.572 119.82 173.604 119.009 167.121L99.9493 186.572H13.5714C13.5714 178.791 24.1152 170.362 29.3871 167.121H56.9631V163.068C67.9935 157.557 63.1813 144.023 59.3963 137.944H24.1152C12.4359 137.944 3.83871 127.138 1 121.735V98.232C8.13733 80.402 22.8986 77.5654 29.3871 78.3759V69.8661C23.3041 43.5264 26.1429 41.095 29.3871 22.0493C40.7419 6.48861 56.7563 4.00226 61.8295 2.59843C88.1889 -4.69564 109.412 14.6202 116.982 27.3173V137.944H127.931C131.5 129.191 144.017 120.79 149.829 117.683H177V126.193H163.212C155.912 127.814 143.99 130.893 154.696 130.245C165.402 129.597 174.026 142.402 177 148.885V186.572M138.069 186.572C151.371 186.572 169.565 186.572 177 186.572M138.069 186.572H177M16.8157 255.055H77.6452V280.989H52.5023C43.1751 281.26 22.9797 276.451 16.8157 255.055ZM7.48848 234.388H77.6452V211.29H7.48848V234.388ZM133.608 151.317C129.959 161.447 130.283 180.817 160.779 177.251C162.942 161.583 160.535 134.459 133.608 151.317ZM29.3871 133.082H94.6774C82.5115 117.278 54.4488 85.4269 39.5253 84.4543C32.9017 83.1035 13.5714 85.5889 8.70507 98.232V118.493C9.65131 123.626 19.0055 133.082 29.3871 133.082ZM110.088 121.735V36.2323C104.14 22.1844 84.8121 3.04777 61.8295 10.703C54.53 13.1344 43.5806 10.703 34.2535 30.9643L33.4424 41.9055L34.2535 52.8466C35.0645 64.5982 74.9687 105.202 99.9493 121.735H110.088Z" stroke="#19BF72"/>
<path d="M192.227 193V121.906H216.592C224.632 121.906 230.752 123.518 234.951 126.74C239.15 129.963 241.25 134.764 241.25 141.145C241.25 144.4 240.371 147.329 238.613 149.934C236.855 152.538 234.284 154.556 230.898 155.988C234.74 157.03 237.702 158.999 239.785 161.896C241.901 164.761 242.959 168.212 242.959 172.248C242.959 178.921 240.811 184.048 236.514 187.629C232.249 191.21 226.13 193 218.154 193H192.227ZM204.58 160.92V183.137H218.301C222.174 183.137 225.202 182.176 227.383 180.256C229.564 178.335 230.654 175.666 230.654 172.248C230.654 164.859 226.878 161.083 219.326 160.92H204.58ZM204.58 151.838H216.689C220.531 151.838 223.525 150.975 225.674 149.25C227.855 147.492 228.945 145.018 228.945 141.828C228.945 138.312 227.936 135.773 225.918 134.211C223.932 132.648 220.824 131.867 216.592 131.867H204.58V151.838ZM296.865 161.262H267.666V183.137H301.797V193H255.312V121.906H301.455V131.867H267.666V151.496H296.865V161.262ZM367.617 175.422L378.555 121.906H390.811L374.404 193H362.588L349.062 141.096L335.244 193H323.379L306.973 121.906H319.229L330.264 175.324L343.838 121.906H354.189L367.617 175.422Z" fill="#19BF72"/>
</svg>
