<svg width="170" height="185" viewBox="0 0 170 185" fill="none" xmlns="http://www.w3.org/2000/svg">
<path d="M10.1536 148.039H45.3597V163.049H30.8078C25.4096 163.205 13.7211 160.422 10.1536 148.039Z" fill="#19BF72"/>
<path d="M4.75532 136.077H45.3597V122.709H4.75532V136.077Z" fill="#19BF72"/>
<path fill-rule="evenodd" clip-rule="evenodd" d="M8.27593 108.403H58.2686L69.2999 97.1452C69.7693 100.898 72.6327 108.403 80.3311 108.403H102.863V86.5912C101.142 82.8387 96.1504 75.4275 89.9541 75.8027C83.7578 76.178 90.6582 74.3955 94.883 73.4574H102.863V68.5322H87.1376C83.7735 70.3303 76.5288 75.193 74.4634 80.2589H68.1263V16.2316C63.7451 8.88291 51.4621 -2.29645 36.2061 1.92512C33.2699 2.73761 24.0013 4.17663 17.4295 13.1827C15.5519 24.2057 13.9089 25.6129 17.4295 40.8575V45.7826C13.6742 45.3136 5.13085 46.9553 1 57.2747V70.8776C2.64295 74.0047 7.61875 80.2589 14.3783 80.2589H34.7979C36.9885 83.7768 39.7737 91.6102 33.3896 94.7998V97.1452H17.4295C14.3783 99.0214 8.27593 103.9 8.27593 108.403ZM77.7493 87.9984C75.637 93.8617 75.8247 105.072 93.4747 103.008C94.7265 93.9399 93.3339 78.2419 77.7493 87.9984ZM55.2174 77.4445H17.4295C11.421 77.4445 6.00709 71.9721 5.45944 69.0013V57.2747C8.27593 49.9573 19.4636 48.5188 23.2972 49.3006C31.9344 49.8635 48.1762 68.2977 55.2174 77.4445ZM64.1363 21.3913V70.8776H58.2686C43.8106 61.3087 20.7154 37.8085 20.246 31.0071L19.7766 24.6747L20.246 18.3424C25.6443 6.61576 31.9814 8.02297 36.2061 6.61576C49.5077 2.18518 60.6939 13.2608 64.1363 21.3913Z" fill="#19BF72"/>
<path d="M80.3311 108.403C72.6327 108.403 69.7693 100.898 69.2999 97.1452L58.2686 108.403H8.27593C8.27593 103.9 14.3783 99.0214 17.4295 97.1452H33.3896V94.7998C39.7737 91.6102 36.9885 83.7768 34.7979 80.2589H14.3783C7.61875 80.2589 2.64295 74.0047 1 70.8776V57.2747C5.13085 46.9553 13.6742 45.3136 17.4295 45.7826V40.8575C13.9089 25.6129 15.5519 24.2057 17.4295 13.1827C24.0013 4.17663 33.2699 2.73761 36.2061 1.92512C51.4621 -2.29645 63.7451 8.88291 68.1263 16.2316V80.2589H74.4634C76.5288 75.193 83.7735 70.3303 87.1376 68.5322H102.863V73.4574H94.883C90.6582 74.3955 83.7578 76.178 89.9541 75.8027C96.1504 75.4275 101.142 82.8387 102.863 86.5912V108.403M80.3311 108.403C88.0295 108.403 98.56 108.403 102.863 108.403M80.3311 108.403H102.863M10.1536 148.039H45.3597V163.049H30.8078C25.4096 163.205 13.7211 160.422 10.1536 148.039ZM4.75532 136.077H45.3597V122.709H4.75532V136.077ZM77.7493 87.9984C75.637 93.8617 75.8247 105.072 93.4747 103.008C94.7265 93.9399 93.3339 78.2419 77.7493 87.9984ZM17.4295 77.4445H55.2174C48.1762 68.2977 31.9344 49.8635 23.2972 49.3006C19.4636 48.5188 8.27593 49.9573 5.45944 57.2747V69.0013C6.00709 71.9721 11.421 77.4445 17.4295 77.4445ZM64.1363 70.8776V21.3913C60.6939 13.2608 49.5077 2.18518 36.2061 6.61576C31.9814 8.02297 25.6443 6.61576 20.246 18.3424L19.7766 24.6747L20.246 31.0071C20.7154 37.8085 43.8106 61.3087 58.2686 70.8776H64.1363Z" stroke="#19BF72"/>
<path d="M53.2297 163.808V128.261H65.4124C69.4325 128.261 72.4924 129.067 74.592 130.678C76.6917 132.29 77.7415 134.69 77.7415 137.88C77.7415 139.508 77.302 140.973 76.4231 142.275C75.5442 143.577 74.2584 144.586 72.5657 145.302C74.4862 145.823 75.9674 146.808 77.009 148.256C78.067 149.689 78.5959 151.414 78.5959 153.432C78.5959 156.769 77.5217 159.332 75.3733 161.123C73.2411 162.913 70.1812 163.808 66.1936 163.808H53.2297ZM59.4065 147.768V158.876H66.2668C68.2037 158.876 69.7174 158.396 70.8079 157.436C71.8984 156.476 72.4436 155.141 72.4436 153.432C72.4436 149.737 70.5556 147.849 66.7795 147.768H59.4065ZM59.4065 143.227H65.4612C67.3818 143.227 68.8792 142.796 69.9534 141.933C71.0439 141.054 71.5891 139.817 71.5891 138.222C71.5891 136.464 71.0846 135.195 70.0754 134.414C69.0826 133.632 67.5282 133.242 65.4124 133.242H59.4065V143.227ZM105.549 147.939H90.9495V158.876H108.015V163.808H84.7727V128.261H107.844V133.242H90.9495V143.056H105.549V147.939ZM140.925 155.019L146.394 128.261H152.522L144.319 163.808H138.41L131.648 137.856L124.739 163.808H118.806L110.603 128.261H116.731L122.248 154.97L129.035 128.261H134.211L140.925 155.019Z" fill="#19BF72"/>
</svg>
