<svg width="265" height="204" viewBox="0 0 265 204" fill="none" xmlns="http://www.w3.org/2000/svg">
<path d="M10.3341 161.506H50.0806V177.993H33.6521C27.5576 178.165 14.3618 175.108 10.3341 161.506Z" fill="#F2F2F2"/>
<path d="M4.23963 148.368H50.0806V133.685H4.23963V148.368Z" fill="#F2F2F2"/>
<path fill-rule="evenodd" clip-rule="evenodd" d="M8.21429 117.97H64.6544L77.1083 105.605C77.6382 109.727 80.871 117.97 89.5622 117.97H115V94.0129C113.057 89.8911 107.422 81.7507 100.426 82.1629C93.4309 82.5751 101.221 80.6172 105.991 79.5868H115V74.177H97.2465C93.4485 76.152 85.2696 81.4931 82.9378 87.0574H75.7834V16.7303C70.8372 8.65854 56.97 -3.6208 39.7465 1.01615C36.4317 1.90858 25.9677 3.48919 18.5484 13.3814C16.4286 25.489 14.5737 27.0346 18.5484 43.7792V49.189C14.3088 48.6737 4.66359 50.477 0 61.8118V76.7531C1.85484 80.1879 7.47235 87.0574 15.1037 87.0574H38.1567C40.6298 90.9216 43.7742 99.5257 36.5668 103.029V105.605H18.5484C15.1037 107.666 8.21429 113.024 8.21429 117.97ZM86.6475 95.5585C84.2627 101.999 84.4747 114.312 104.401 112.045C105.814 102.085 104.242 84.842 86.6475 95.5585ZM61.2097 83.9661H18.5484C11.765 83.9661 5.65284 77.9553 5.03456 74.6922V61.8118C8.21429 53.7744 20.8449 52.1944 25.1728 53.0531C34.924 53.6714 53.2604 73.9194 61.2097 83.9661ZM71.2788 22.3977V76.7531H64.6544C48.3318 66.2427 22.2581 40.4303 21.7281 32.9596L21.1982 26.0042L21.7281 19.0488C27.8226 6.16832 34.977 7.71398 39.7465 6.16832C54.7636 1.30179 67.3925 13.4672 71.2788 22.3977Z" fill="#F2F2F2"/>
<path d="M58.2266 200V128.906H82.5918C90.6322 128.906 96.752 130.518 100.951 133.74C105.15 136.963 107.25 141.764 107.25 148.145C107.25 151.4 106.371 154.329 104.613 156.934C102.855 159.538 100.284 161.556 96.8984 162.988C100.74 164.03 103.702 165.999 105.785 168.896C107.901 171.761 108.959 175.212 108.959 179.248C108.959 185.921 106.811 191.048 102.514 194.629C98.2493 198.21 92.1296 200 84.1543 200H58.2266ZM70.5801 167.92V190.137H84.3008C88.1745 190.137 91.2018 189.176 93.3828 187.256C95.5638 185.335 96.6543 182.666 96.6543 179.248C96.6543 171.859 92.8783 168.083 85.3262 167.92H70.5801ZM70.5801 158.838H82.6895C86.5306 158.838 89.5254 157.975 91.6738 156.25C93.8548 154.492 94.9453 152.018 94.9453 148.828C94.9453 145.312 93.9362 142.773 91.918 141.211C89.9323 139.648 86.8236 138.867 82.5918 138.867H70.5801V158.838ZM162.865 168.262H133.666V190.137H167.797V200H121.312V128.906H167.455V138.867H133.666V158.496H162.865V168.262ZM233.617 182.422L244.555 128.906H256.811L240.404 200H228.588L215.062 148.096L201.244 200H189.379L172.973 128.906H185.229L196.264 182.324L209.838 128.906H220.189L233.617 182.422Z" fill="#F2F2F2"/>
</svg>
