<svg width="171" height="132" viewBox="0 0 171 132" fill="none" xmlns="http://www.w3.org/2000/svg">
<path d="M5.30184 82.5678H25.6935V90.9966H17.265C14.1382 91.0844 7.3682 89.5215 5.30184 82.5678Z" fill="#0D1117"/>
<path d="M2.17512 75.8512H25.6935V68.3444H2.17512V75.8512Z" fill="#0D1117"/>
<path fill-rule="evenodd" clip-rule="evenodd" d="M4.21429 60.3107H33.1705L39.5599 53.9892C39.8318 56.0964 41.4903 60.3107 45.9493 60.3107H59V48.0628C58.0031 45.9556 55.112 41.7939 51.523 42.0046C47.9341 42.2153 51.9309 41.2144 54.3779 40.6876H59V37.922H49.8917C47.9432 38.9316 43.747 41.6622 42.5507 44.5069H38.8802V8.55312C36.3425 4.42656 29.2281 -1.85108 20.3917 0.51949C18.691 0.975736 13.3226 1.7838 9.51613 6.84103C8.42857 13.0309 7.47696 13.8211 9.51613 22.3815V25.1472C7.34101 24.8838 2.39263 25.8057 0 31.6004V39.2389C0.951613 40.9949 3.83364 44.5069 7.74885 44.5069H19.576C20.8449 46.4824 22.4581 50.8811 18.7604 52.6722V53.9892H9.51613C7.74885 55.0428 4.21429 57.7821 4.21429 60.3107ZM44.4539 48.853C43.2304 52.1454 43.3392 58.4406 53.5622 57.2817C54.2872 52.1893 53.4806 43.3743 44.4539 48.853ZM31.4032 42.9265H9.51613C6.03594 42.9265 2.90015 39.8535 2.58295 38.1854V31.6004C4.21429 27.4914 10.6943 26.6837 12.9147 27.1226C17.9175 27.4387 27.3249 37.7903 31.4032 42.9265ZM36.5691 11.4505V39.2389H33.1705C24.7963 33.8656 11.4194 20.6694 11.1475 16.8501L10.8756 13.2943L11.1475 9.73841C14.2742 3.15347 17.9447 3.94367 20.3917 3.15347C28.0961 0.665524 34.5753 6.88493 36.5691 11.4505Z" fill="#0D1117"/>
<path d="M30.0586 115V65.2344H47.1143C52.7425 65.2344 57.0264 66.3623 59.9658 68.6182C62.9053 70.874 64.375 74.235 64.375 78.7012C64.375 80.9798 63.7598 83.0306 62.5293 84.8535C61.2988 86.6764 59.4987 88.0892 57.1289 89.0918C59.8177 89.821 61.8913 91.1995 63.3496 93.2275C64.8307 95.2327 65.5713 97.6481 65.5713 100.474C65.5713 105.145 64.0674 108.734 61.0596 111.24C58.0745 113.747 53.7907 115 48.208 115H30.0586ZM38.7061 92.5439V108.096H48.3105C51.0221 108.096 53.1413 107.424 54.668 106.079C56.1947 104.735 56.958 102.866 56.958 100.474C56.958 95.3011 54.3148 92.6579 49.0283 92.5439H38.7061ZM38.7061 86.1865H47.1826C49.8714 86.1865 51.9678 85.5827 53.4717 84.375C54.9984 83.1445 55.7617 81.4128 55.7617 79.1797C55.7617 76.7188 55.0553 74.9414 53.6426 73.8477C52.2526 72.7539 50.0765 72.207 47.1143 72.207H38.7061V86.1865ZM103.306 92.7832H82.8662V108.096H106.758V115H74.2188V65.2344H106.519V72.207H82.8662V85.9473H103.306V92.7832ZM152.832 102.695L160.488 65.2344H169.067L157.583 115H149.312L139.844 78.667L130.171 115H121.865L110.381 65.2344H118.96L126.685 102.627L136.187 65.2344H143.433L152.832 102.695Z" fill="#0D1117"/>
</svg>
